<svg width="24" height="13" viewBox="0 0 24 13" fill="none" xmlns="http://www.w3.org/2000/svg">
<path d="M9.73647 11.1696H6.4329C5.11865 11.1696 3.85824 10.6475 2.92893 9.71824C1.99962 8.78893 1.47754 7.52851 1.47754 6.21427C1.47754 4.90003 1.99962 3.63961 2.92893 2.7103C3.85824 1.78099 5.11865 1.25891 6.4329 1.25891H9.73647M14.6918 1.25891H17.9954C19.3096 1.25891 20.5701 1.78099 21.4994 2.7103C22.4287 3.63961 22.9508 4.90003 22.9508 6.21427C22.9508 7.52851 22.4287 8.78893 21.4994 9.71824C20.5701 10.6475 19.3096 11.1696 17.9954 11.1696H14.6918M7.42861 6.21427H17.1029" stroke="#0D1F2A" stroke-width="2" stroke-linecap="round" stroke-linejoin="round"/>
</svg>
