<svg width="24" height="23" viewBox="0 0 24 23" fill="none" xmlns="http://www.w3.org/2000/svg">
<path d="M19.9888 1.73218H4.29688C3.5309 1.73436 2.79693 2.0396 2.2553 2.58123C1.71368 3.12286 1.40843 3.85683 1.40625 4.6228V14.5335C1.40843 15.2995 1.71368 16.0335 2.2553 16.5751C2.79693 17.1167 3.5309 17.422 4.29688 17.4241H6.36161V21.5536L11.1993 17.5202C11.2736 17.4581 11.3673 17.4241 11.4641 17.4241H19.9888C20.7548 17.422 21.4888 17.1167 22.0304 16.5751C22.572 16.0335 22.8773 15.2995 22.8795 14.5335V4.6228C22.8773 3.85683 22.572 3.12286 22.0304 2.58123C21.4888 2.0396 20.7548 1.73436 19.9888 1.73218V1.73218Z" stroke="#0D1F2A" stroke-width="2" stroke-linejoin="round"/>
</svg>
