<svg width="19" height="25" viewBox="0 0 19 25" fill="none" xmlns="http://www.w3.org/2000/svg">
<path d="M13.4062 3.125H14.9688C15.5904 3.125 16.1865 3.37193 16.626 3.81147C17.0656 4.25101 17.3125 4.84715 17.3125 5.46875V21.0938C17.3125 21.7154 17.0656 22.3115 16.626 22.751C16.1865 23.1906 15.5904 23.4375 14.9688 23.4375H4.03125C3.40965 23.4375 2.81351 23.1906 2.37397 22.751C1.93443 22.3115 1.6875 21.7154 1.6875 21.0938V5.46875C1.6875 4.84715 1.93443 4.25101 2.37397 3.81147C2.81351 3.37193 3.40965 3.125 4.03125 3.125H5.59375" stroke="#A3AED0" stroke-width="2" stroke-linejoin="round"/>
<path d="M12.1304 1.5625H6.86963C6.16498 1.5625 5.59375 2.13373 5.59375 2.83838V3.41162C5.59375 4.11627 6.16498 4.6875 6.86963 4.6875H12.1304C12.835 4.6875 13.4062 4.11627 13.4062 3.41162V2.83838C13.4062 2.13373 12.835 1.5625 12.1304 1.5625Z" stroke="#A3AED0" stroke-width="2" stroke-linejoin="round"/>
</svg>
