<svg width="27" height="27" viewBox="0 0 27 27" fill="none" xmlns="http://www.w3.org/2000/svg">
<path d="M11.5038 9.20317C10.8684 8.56778 9.83831 8.5677 9.20302 9.20299C8.56773 9.83827 8.56782 10.8684 9.2032 11.5037L20.7064 23.007C21.3418 23.6424 22.3719 23.6424 23.0072 23.0072C23.6425 22.3719 23.6424 21.3418 23.007 20.7064L11.5038 9.20317Z" fill="#0D1F2A" stroke="#0D1F2A" stroke-width="2" stroke-miterlimit="10"/>
<path d="M9.20796 9.20765C9.05627 9.35931 8.93594 9.53937 8.85384 9.73754C8.77175 9.93571 8.72949 10.1481 8.72949 10.3626C8.72949 10.5771 8.77175 10.7895 8.85384 10.9877C8.93594 11.1859 9.05627 11.3659 9.20796 11.5176L11.5241 13.8337L13.834 11.5238L11.5179 9.20765C11.3662 9.05596 11.1862 8.93563 10.988 8.85354C10.7898 8.77144 10.5774 8.72919 10.3629 8.72919C10.1484 8.72919 9.93601 8.77144 9.73784 8.85354C9.53967 8.93563 9.35962 9.05596 9.20796 9.20765Z" fill="#0D1F2A"/>
<path d="M2.47754 9.9107H4.95522H2.47754ZM4.6548 4.65492L6.40672 6.40685L4.6548 4.65492ZM9.91057 2.47766V4.95534V2.47766ZM15.1664 4.65492L13.4144 6.40685L15.1664 4.65492ZM6.40672 13.4145L4.6548 15.1665L6.40672 13.4145Z" fill="#0D1F2A"/>
<path d="M2.47754 9.9107H4.95522M4.6548 4.65492L6.40672 6.40685M9.91057 2.47766V4.95534M15.1664 4.65492L13.4144 6.40685M6.40672 13.4145L4.6548 15.1665" stroke="#0D1F2A" stroke-width="2" stroke-miterlimit="10" stroke-linecap="round"/>
</svg>
