<svg width="22" height="28" viewBox="0 0 22 28" fill="none" xmlns="http://www.w3.org/2000/svg">
<path d="M15.6875 10.25H18.0312C18.6529 10.25 19.249 10.4969 19.6885 10.9365C20.1281 11.376 20.375 11.9721 20.375 12.5938V23.8438C20.375 24.4654 20.1281 25.0615 19.6885 25.501C19.249 25.9406 18.6529 26.1875 18.0312 26.1875H3.96875C3.34715 26.1875 2.75101 25.9406 2.31147 25.501C1.87193 25.0615 1.625 24.4654 1.625 23.8438V12.5938C1.625 11.9721 1.87193 11.376 2.31147 10.9365C2.75101 10.4969 3.34715 10.25 3.96875 10.25H6.3125M15.6875 6.5L11 1.8125L6.3125 6.5M11 17.8086V1.8125" stroke="#0D1F2A" stroke-width="2" stroke-linecap="round" stroke-linejoin="round"/>
</svg>
