<svg width="20" height="20" viewBox="0 0 20 20" fill="none" xmlns="http://www.w3.org/2000/svg">
<path d="M10 1.875C5.51289 1.875 1.875 5.51289 1.875 10C1.875 14.4871 5.51289 18.125 10 18.125C14.4871 18.125 18.125 14.4871 18.125 10C18.125 5.51289 14.4871 1.875 10 1.875Z" stroke="#A3AED0" stroke-miterlimit="10"/>
<path d="M10 1.875C7.73169 1.875 5.59888 5.51289 5.59888 10C5.59888 14.4871 7.73169 18.125 10 18.125C12.2684 18.125 14.4012 14.4871 14.4012 10C14.4012 5.51289 12.2684 1.875 10 1.875Z" stroke="#A3AED0" stroke-miterlimit="10"/>
<path d="M4.58325 4.58321C6.077 5.64375 7.95747 6.27617 10 6.27617C12.0426 6.27617 13.9231 5.64375 15.4168 4.58321M15.4168 15.4168C13.9231 14.3563 12.0426 13.7238 10 13.7238C7.95747 13.7238 6.077 14.3563 4.58325 15.4168" stroke="#A3AED0" stroke-linecap="round" stroke-linejoin="round"/>
<path d="M10 1.875V18.125M18.125 10H1.875" stroke="#A3AED0" stroke-miterlimit="10"/>
</svg>
