<svg width="21" height="21" viewBox="0 0 21 21" fill="none" xmlns="http://www.w3.org/2000/svg">
<path d="M17.4 13.1217V10.8742C17.4 10.4897 17.2472 10.1209 16.9753 9.84886C16.7033 9.57698 16.3345 9.42421 15.95 9.42421H10.875V7.17671C12.0591 6.93494 13.045 6.11917 13.5036 5.00105C13.9624 3.88298 13.8337 2.60967 13.1607 1.60602C12.4876 0.602206 11.3585 0 10.15 0C8.94141 0 7.81232 0.602164 7.13927 1.60602C6.46622 2.60971 6.33754 3.88298 6.79635 5.00105C7.25497 6.11912 8.24084 6.93494 9.42495 7.17671V9.42421H4.34995C3.96544 9.42421 3.59661 9.57698 3.32459 9.84886C3.05272 10.1209 2.89995 10.4897 2.89995 10.8742V13.1217C1.71584 13.3635 0.729964 14.1793 0.27135 15.2974C-0.18743 16.4154 -0.0587865 17.6888 0.614266 18.6924C1.28731 19.6962 2.41641 20.2984 3.62496 20.2984C4.83352 20.2984 5.96261 19.6963 6.63566 18.6924C7.30871 17.6887 7.43739 16.4154 6.97858 15.2974C6.51996 14.1793 5.53409 13.3635 4.34998 13.1217V10.8742H15.95V13.1217C14.7659 13.3635 13.78 14.1793 13.3214 15.2974C12.8626 16.4154 12.9912 17.6888 13.6643 18.6924C14.3373 19.6962 15.4664 20.2984 16.675 20.2984C17.8835 20.2984 19.0126 19.6963 19.6857 18.6924C20.3587 17.6887 20.4874 16.4154 20.0286 15.2974C19.57 14.1793 18.5841 13.3635 17.4 13.1217H17.4ZM7.97498 3.62421C7.97498 3.04728 8.20413 2.49417 8.61194 2.08618C9.01992 1.67836 9.57304 1.44921 10.15 1.44921C10.7269 1.44921 11.28 1.67836 11.688 2.08618C12.0958 2.49415 12.325 3.04728 12.325 3.62421C12.325 4.20115 12.0958 4.75426 11.688 5.16225C11.28 5.57006 10.7269 5.79921 10.15 5.79921C9.57304 5.79921 9.01993 5.57006 8.61194 5.16225C8.20413 4.75427 7.97498 4.20115 7.97498 3.62421ZM5.79998 16.6742C5.79998 17.2511 5.57083 17.8043 5.16301 18.2122C4.75504 18.6201 4.20191 18.8492 3.62498 18.8492C3.04804 18.8492 2.49493 18.6201 2.08694 18.2122C1.67913 17.8043 1.44998 17.2511 1.44998 16.6742C1.44998 16.0973 1.67913 15.5442 2.08694 15.1362C2.49492 14.7284 3.04804 14.4992 3.62498 14.4992C4.20191 14.4992 4.75502 14.7284 5.16301 15.1362C5.57083 15.5442 5.79998 16.0973 5.79998 16.6742ZM16.675 18.8492C16.098 18.8492 15.5449 18.6201 15.1369 18.2122C14.7291 17.8043 14.5 17.2511 14.5 16.6742C14.5 16.0973 14.7291 15.5442 15.1369 15.1362C15.5449 14.7284 16.098 14.4992 16.675 14.4992C17.2519 14.4992 17.805 14.7284 18.213 15.1362C18.6208 15.5442 18.85 16.0973 18.85 16.6742C18.85 17.2511 18.6208 17.8043 18.213 18.2122C17.805 18.6201 17.2519 18.8492 16.675 18.8492Z" fill="#A3AED0"/>
</svg>
