<svg width="16" height="23" viewBox="0 0 16 23" fill="none" xmlns="http://www.w3.org/2000/svg">
<path d="M4.3397 21.5536H10.9468M14.2504 9.16522V10.817C14.2504 14.4509 11.2772 17.4242 7.64328 17.4242C4.00935 17.4242 1.03613 14.4509 1.03613 10.817V9.16522M7.64328 17.4242V21.5536" stroke="#0D1F2A" stroke-width="2" stroke-linecap="round" stroke-linejoin="round"/>
<path d="M7.64346 1.73216C7.20901 1.72997 6.77845 1.81393 6.37665 1.97917C5.97485 2.14441 5.6098 2.38767 5.3026 2.69487C4.9954 3.00207 4.75214 3.36713 4.5869 3.76892C4.42165 4.17072 4.3377 4.60129 4.33989 5.03573V10.7654C4.33989 12.5823 5.83682 14.1206 7.64346 14.1206C9.4501 14.1206 10.947 12.6236 10.947 10.7654V5.03573C10.947 3.17747 9.50172 1.73216 7.64346 1.73216Z" stroke="#0D1F2A" stroke-width="2" stroke-linecap="round" stroke-linejoin="round"/>
</svg>
