<svg width="32" height="28" viewBox="0 0 32 28" fill="none" xmlns="http://www.w3.org/2000/svg">
<path d="M24.75 4H31M1 4H19.75M24.75 24H31M1 24H19.75M12.25 14H31M1 14H7.25" stroke="#0D1F2A" stroke-width="2" stroke-linecap="round" stroke-linejoin="round"/>
<path d="M22.25 6.5C23.6307 6.5 24.75 5.38071 24.75 4C24.75 2.61929 23.6307 1.5 22.25 1.5C20.8693 1.5 19.75 2.61929 19.75 4C19.75 5.38071 20.8693 6.5 22.25 6.5Z" stroke="#0D1F2A" stroke-width="2" stroke-linecap="round" stroke-linejoin="round"/>
<path d="M9.75 16.5C11.1307 16.5 12.25 15.3807 12.25 14C12.25 12.6193 11.1307 11.5 9.75 11.5C8.36929 11.5 7.25 12.6193 7.25 14C7.25 15.3807 8.36929 16.5 9.75 16.5Z" stroke="#0D1F2A" stroke-width="2" stroke-linecap="round" stroke-linejoin="round"/>
<path d="M22.25 26.5C23.6307 26.5 24.75 25.3807 24.75 24C24.75 22.6193 23.6307 21.5 22.25 21.5C20.8693 21.5 19.75 22.6193 19.75 24C19.75 25.3807 20.8693 26.5 22.25 26.5Z" stroke="#0D1F2A" stroke-width="2" stroke-linecap="round" stroke-linejoin="round"/>
</svg>
