<svg width="24" height="18" viewBox="0 0 24 18" fill="none" xmlns="http://www.w3.org/2000/svg">
<path d="M19.0669 4.51562C18.9239 6.50146 17.4507 8.03125 15.8443 8.03125C14.2378 8.03125 12.7622 6.50195 12.6216 4.51562C12.4751 2.44971 13.9092 1 15.8443 1C17.7793 1 19.2134 2.4873 19.0669 4.51562Z" stroke="#A3AED0" stroke-width="2" stroke-linecap="round" stroke-linejoin="round"/>
<path d="M15.844 11.1562C12.6619 11.1562 9.60186 12.7368 8.83526 15.8149C8.73369 16.2222 8.98906 16.625 9.40752 16.625H22.2811C22.6995 16.625 22.9534 16.2222 22.8533 15.8149C22.0867 12.6875 19.0267 11.1562 15.844 11.1562Z" stroke="#A3AED0" stroke-width="2" stroke-miterlimit="10"/>
<path d="M9.20341 5.3916C9.08915 6.97754 7.89872 8.22656 6.61552 8.22656C5.33231 8.22656 4.13993 6.97803 4.02763 5.3916C3.91093 3.7417 5.06962 2.5625 6.61552 2.5625C8.16142 2.5625 9.32011 3.77197 9.20341 5.3916Z" stroke="#A3AED0" stroke-width="2" stroke-linecap="round" stroke-linejoin="round"/>
<path d="M9.49657 11.2539C8.61522 10.8501 7.64452 10.6948 6.61571 10.6948C4.07665 10.6948 1.63036 11.957 1.01757 14.4155C0.937001 14.7407 1.1411 15.0625 1.47509 15.0625H6.95751" stroke="#A3AED0" stroke-width="2" stroke-miterlimit="10" stroke-linecap="round"/>
</svg>
