<svg width="24" height="23" viewBox="0 0 24 23" fill="none" xmlns="http://www.w3.org/2000/svg">
<path d="M17.797 5.6875C17.6056 8.26904 15.6485 10.375 13.5001 10.375C11.3517 10.375 9.39121 8.26953 9.20323 5.6875C9.00791 3.00195 10.9122 1 13.5001 1C16.088 1 17.9923 3.05078 17.797 5.6875Z" stroke="#A3AED0" stroke-width="2" stroke-linecap="round" stroke-linejoin="round"/>
<path d="M13.5 13.5C9.252 13.5 4.94048 15.8438 4.14263 20.2676C4.04497 20.8008 4.34819 21.3125 4.90679 21.3125H22.0938C22.6524 21.3125 22.9541 20.8008 22.858 20.2676C22.0596 15.8438 17.7481 13.5 13.5 13.5Z" stroke="#A3AED0" stroke-width="2" stroke-miterlimit="10"/>
<path d="M3.73437 7.25V12.7187M6.46875 9.98437H1" stroke="#A3AED0" stroke-width="2" stroke-linecap="round" stroke-linejoin="round"/>
</svg>
