<svg width="9" height="10" viewBox="0 0 9 10" fill="none" xmlns="http://www.w3.org/2000/svg">
<path d="M1.03964 10C0.866939 9.99969 0.697291 9.95596 0.547389 9.8731C0.209842 9.68832 0 9.32962 0 8.94022V1.05983C0 0.669338 0.209842 0.311731 0.547389 0.126949C0.700861 0.0417424 0.875208 -0.00207554 1.05221 7.55533e-05C1.2292 0.00222665 1.40236 0.0502679 1.55356 0.139178L8.52531 4.17068C8.67061 4.25869 8.79039 4.38091 8.87342 4.52588C8.95644 4.67084 9 4.83381 9 4.99948C9 5.16516 8.95644 5.32812 8.87342 5.47308C8.79039 5.61805 8.67061 5.74027 8.52531 5.82828L1.55243 9.86087C1.3977 9.95124 1.22046 9.99933 1.03964 10Z" fill="#0D1F2A"/>
</svg>
