<svg width="27" height="28" viewBox="0 0 27 28" fill="none" xmlns="http://www.w3.org/2000/svg">
<path d="M18.9288 8.64011H21.6074C22.3178 8.64011 22.9991 8.83772 23.5015 9.18948C24.0038 9.54123 24.286 10.0183 24.286 10.5158V19.5189C24.286 20.0164 24.0038 20.4934 23.5015 20.8452C22.9991 21.1969 22.3178 21.3946 21.6074 21.3946H5.53599C4.82559 21.3946 4.14429 21.1969 3.64196 20.8452C3.13963 20.4934 2.85742 20.0164 2.85742 19.5189V10.5158C2.85742 10.0183 3.13963 9.54123 3.64196 9.18948C4.14429 8.83772 4.82559 8.64011 5.53599 8.64011H8.21456M18.9288 5.63906L13.5717 1.88776L8.21456 5.63906M13.5717 14.6891V1.88776" stroke="#0D1F2A" stroke-width="2" stroke-linecap="round" stroke-linejoin="round"/>
<path d="M13.5713 22.0237V26.4285" stroke="#0D1F2A" stroke-width="2" stroke-linecap="round"/>
<path d="M7.85742 26.4285L19.286 26.4285" stroke="#0D1F2A" stroke-width="2" stroke-linecap="round"/>
</svg>
