<svg width="12" height="12" viewBox="0 0 12 12" fill="none" xmlns="http://www.w3.org/2000/svg">
<path d="M11.0248 7.03125L11.0138 7.02234L10.2741 6.44227C10.2272 6.40521 10.1898 6.35757 10.165 6.30326C10.1401 6.24895 10.1285 6.18952 10.1311 6.12984V5.85891C10.1288 5.79961 10.1405 5.74061 10.1654 5.68675C10.1903 5.63288 10.2276 5.58569 10.2743 5.54906L11.0138 4.96875L11.0248 4.95984C11.1388 4.86484 11.2153 4.73237 11.2407 4.58613C11.266 4.43988 11.2385 4.28939 11.1631 4.16156L10.162 2.42953C10.1609 2.4279 10.1599 2.42617 10.159 2.42438C10.0831 2.29832 9.96555 2.20281 9.82661 2.15443C9.68768 2.10605 9.53619 2.10785 9.39845 2.15953L9.39025 2.16258L8.52071 2.5125C8.46583 2.53469 8.40646 2.54352 8.3475 2.53826C8.28854 2.53301 8.23166 2.51381 8.18157 2.48227C8.1047 2.43383 8.02657 2.38805 7.9472 2.34492C7.89573 2.31701 7.85155 2.2774 7.81821 2.22928C7.78486 2.18116 7.7633 2.12588 7.75525 2.06789L7.62423 1.14L7.62142 1.12312C7.5929 0.979406 7.51577 0.849884 7.40301 0.756327C7.29025 0.662769 7.14871 0.610879 7.0022 0.609375H4.99782C4.84925 0.60985 4.7056 0.662746 4.5922 0.758743C4.47879 0.85474 4.4029 0.987679 4.3779 1.13414L4.37579 1.14727L4.24525 2.07703C4.23724 2.13485 4.21584 2.19001 4.18276 2.2381C4.14968 2.28619 4.10583 2.3259 4.0547 2.35406C3.97509 2.39694 3.89693 2.44243 3.82032 2.49047C3.77032 2.52182 3.7136 2.54087 3.6548 2.54605C3.59601 2.55122 3.53683 2.54237 3.48212 2.52023L2.61189 2.16867L2.60368 2.16539C2.46574 2.11366 2.31403 2.11192 2.17495 2.16048C2.03586 2.20904 1.9182 2.30483 1.84243 2.43117L1.83939 2.43633L0.836965 4.16953C0.761409 4.29749 0.733833 4.44814 0.759166 4.59456C0.7845 4.74098 0.861092 4.87362 0.975246 4.96875L0.986261 4.97766L1.72595 5.55773C1.77279 5.59479 1.81017 5.64243 1.83503 5.69674C1.85988 5.75105 1.8715 5.81048 1.86892 5.87016V6.14109C1.87126 6.20039 1.85951 6.25939 1.83461 6.31325C1.80972 6.36712 1.7724 6.4143 1.72571 6.45094L0.986261 7.03125L0.975246 7.04016C0.861205 7.13516 0.784675 7.26763 0.759342 7.41387C0.734008 7.56012 0.761522 7.71061 0.836965 7.83844L1.83798 9.57047C1.83913 9.5721 1.84015 9.57383 1.84103 9.57562C1.91688 9.70168 2.03448 9.79719 2.17341 9.84557C2.31234 9.89395 2.46383 9.89215 2.60157 9.84047L2.60978 9.83742L3.47861 9.4875C3.53349 9.46531 3.59286 9.45648 3.65182 9.46174C3.71078 9.46699 3.76765 9.48619 3.81775 9.51773C3.89462 9.56633 3.97275 9.61211 4.05212 9.65508C4.10358 9.68299 4.14777 9.7226 4.18111 9.77072C4.21445 9.81884 4.23602 9.87412 4.24407 9.93211L4.37439 10.86L4.3772 10.8769C4.40577 11.0208 4.4831 11.1505 4.59615 11.2441C4.70921 11.3377 4.85107 11.3894 4.99782 11.3906H7.0022C7.15078 11.3901 7.29442 11.3373 7.40783 11.2413C7.52123 11.1453 7.59712 11.0123 7.62212 10.8659L7.62423 10.8527L7.75478 9.92297C7.76291 9.86504 7.78448 9.80981 7.81777 9.76171C7.85106 9.71361 7.89515 9.67396 7.9465 9.64594C8.02665 9.60281 8.10493 9.55711 8.18087 9.50953C8.23087 9.47818 8.2876 9.45913 8.34639 9.45395C8.40518 9.44878 8.46436 9.45763 8.51907 9.47977L9.38931 9.83016L9.39751 9.83344C9.53544 9.88527 9.68718 9.88705 9.82629 9.83848C9.96541 9.78991 10.0831 9.69407 10.1588 9.56766C10.1597 9.56589 10.1607 9.56417 10.1618 9.5625L11.1628 7.8307C11.2385 7.70276 11.2662 7.55206 11.2409 7.40558C11.2156 7.25909 11.139 7.1264 11.0248 7.03125ZM7.8729 6.08813C7.85583 6.45107 7.73368 6.80124 7.52129 7.09605C7.3089 7.39086 7.01542 7.61761 6.67656 7.74872C6.33769 7.87984 5.96802 7.90966 5.61252 7.83458C5.25701 7.7595 4.93098 7.58274 4.67407 7.3258C4.41716 7.06885 4.24044 6.7428 4.16539 6.38729C4.09035 6.03177 4.12023 5.66211 4.25138 5.32326C4.38253 4.9844 4.60932 4.69096 4.90415 4.4786C5.19899 4.26625 5.54917 4.14413 5.91212 4.12711C6.17269 4.11564 6.4328 4.15851 6.6759 4.25301C6.919 4.3475 7.13978 4.49155 7.32419 4.67599C7.50861 4.86042 7.65263 5.08122 7.7471 5.32433C7.84156 5.56745 7.88441 5.82756 7.8729 6.08813Z" fill="#0D1F2A"/>
</svg>
