<svg width="25" height="25" viewBox="0 0 25 25" fill="none" xmlns="http://www.w3.org/2000/svg">
<path d="M6.25 14.8438C7.54442 14.8438 8.59375 13.7944 8.59375 12.5C8.59375 11.2056 7.54442 10.1562 6.25 10.1562C4.95558 10.1562 3.90625 11.2056 3.90625 12.5C3.90625 13.7944 4.95558 14.8438 6.25 14.8438Z" stroke="#0D1F2A" stroke-width="2" stroke-linecap="round" stroke-linejoin="round"/>
<path d="M18.75 7.8125C20.0444 7.8125 21.0938 6.76317 21.0938 5.46875C21.0938 4.17433 20.0444 3.125 18.75 3.125C17.4556 3.125 16.4062 4.17433 16.4062 5.46875C16.4062 6.76317 17.4556 7.8125 18.75 7.8125Z" stroke="#0D1F2A" stroke-width="2" stroke-linecap="round" stroke-linejoin="round"/>
<path d="M18.75 21.875C20.0444 21.875 21.0938 20.8257 21.0938 19.5312C21.0938 18.2368 20.0444 17.1875 18.75 17.1875C17.4556 17.1875 16.4062 18.2368 16.4062 19.5312C16.4062 20.8257 17.4556 21.875 18.75 21.875Z" stroke="#0D1F2A" stroke-width="2" stroke-linecap="round" stroke-linejoin="round"/>
<path d="M8.29248 13.6489L16.7075 18.3823M16.7075 6.61768L8.29248 11.3511" stroke="#0D1F2A" stroke-width="2" stroke-linecap="round" stroke-linejoin="round"/>
</svg>
