<svg width="25" height="25" viewBox="0 0 25 25" fill="none" xmlns="http://www.w3.org/2000/svg">
<path d="M5.46875 5.46875L6.44531 21.0938C6.4917 21.9966 7.14844 22.6562 8.00781 22.6562H16.9922C17.855 22.6562 18.4995 21.9966 18.5547 21.0938L19.5312 5.46875" stroke="#0D1F2A" stroke-width="2" stroke-linecap="round" stroke-linejoin="round"/>
<path d="M3.90625 5.46875H21.0938H3.90625Z" fill="#0D1F2A"/>
<path d="M3.90625 5.46875H21.0938" stroke="#0D1F2A" stroke-width="2" stroke-miterlimit="10" stroke-linecap="round"/>
<path d="M9.375 5.46875V3.51563C9.37455 3.36161 9.40455 3.20902 9.46328 3.06664C9.52202 2.92426 9.60832 2.79489 9.71723 2.68598C9.82614 2.57707 9.9555 2.49077 10.0979 2.43204C10.2403 2.37331 10.3929 2.3433 10.5469 2.34376H14.4531C14.6071 2.3433 14.7597 2.37331 14.9021 2.43204C15.0445 2.49077 15.1739 2.57707 15.2828 2.68598C15.3917 2.79489 15.478 2.92426 15.5367 3.06664C15.5954 3.20902 15.6255 3.36161 15.625 3.51563V5.46875M12.5 8.59376V19.5313M8.98438 8.59376L9.375 19.5313M16.0156 8.59376L15.625 19.5313" stroke="#0D1F2A" stroke-width="2" stroke-linecap="round" stroke-linejoin="round"/>
</svg>
