<svg width="25" height="25" viewBox="0 0 25 25" fill="none" xmlns="http://www.w3.org/2000/svg">
<path d="M16.4062 3.125H17.9688C18.5904 3.125 19.1865 3.37193 19.626 3.81147C20.0656 4.25101 20.3125 4.84715 20.3125 5.46875V21.0938C20.3125 21.7154 20.0656 22.3115 19.626 22.751C19.1865 23.1906 18.5904 23.4375 17.9688 23.4375H7.03125C6.40965 23.4375 5.81351 23.1906 5.37397 22.751C4.93443 22.3115 4.6875 21.7154 4.6875 21.0938V5.46875C4.6875 4.84715 4.93443 4.25101 5.37397 3.81147C5.81351 3.37193 6.40965 3.125 7.03125 3.125H8.59375" stroke="white" stroke-width="2" stroke-linejoin="round"/>
<path d="M15.1304 1.5625H9.86963C9.16498 1.5625 8.59375 2.13373 8.59375 2.83838V3.41162C8.59375 4.11627 9.16498 4.6875 9.86963 4.6875H15.1304C15.835 4.6875 16.4062 4.11627 16.4062 3.41162V2.83838C16.4062 2.13373 15.835 1.5625 15.1304 1.5625Z" stroke="white" stroke-width="2" stroke-linejoin="round"/>
</svg>
