<svg width="209" height="46" viewBox="0 0 209 46" fill="none" xmlns="http://www.w3.org/2000/svg">
<path d="M23.8965 46C36.599 46 46.8965 35.7025 46.8965 23C46.8965 10.2975 36.599 0 23.8965 0C11.1939 0 0.896484 10.2975 0.896484 23C0.896484 35.7025 11.1939 46 23.8965 46Z" fill="white"/>
<path d="M24.0742 42.3554C35.218 42.3554 44.2519 33.3216 44.2519 22.1777C44.2519 11.0339 35.218 2 24.0742 2C12.9304 2 3.89648 11.0339 3.89648 22.1777C3.89648 33.3216 12.9304 42.3554 24.0742 42.3554Z" fill="white"/>
<path d="M24.0231 44.2491C18.4226 44.2427 13.0533 42.0153 9.09284 38.0556C5.13235 34.0959 2.904 28.727 2.89648 23.1266C2.90292 17.5254 5.1308 12.1556 9.09141 8.19495C13.052 4.23434 18.4219 2.00644 24.0231 2C29.6242 2.00644 34.9941 4.23434 38.9547 8.19495C42.9153 12.1556 45.1432 17.5254 45.1496 23.1266C45.1432 28.7274 42.9152 34.0968 38.9545 38.0568C34.9937 42.0168 29.6238 44.2438 24.0231 44.2491ZM24.0231 3.89369C18.9245 3.90013 14.0367 5.92865 10.4319 9.53424C6.82708 13.1398 4.79961 18.0281 4.79425 23.1266C4.79962 28.2248 6.82721 33.1126 10.4322 36.7175C14.0371 40.3225 18.9249 42.3501 24.0231 42.3554C29.1212 42.3501 34.009 40.3225 37.614 36.7175C41.2189 33.1126 43.2466 28.2248 43.2519 23.1266C43.2444 18.0295 41.216 13.1433 37.6114 9.53947C34.0068 5.93563 29.1202 3.90824 24.0231 3.9018V3.89369Z" fill="#0D1F2A"/>
<path d="M15.231 26.2318C14.3978 26.2543 13.5691 26.1024 12.798 25.7858C12.1765 25.5195 11.6223 25.1177 11.176 24.6098C10.756 24.1258 10.4473 23.5555 10.2717 22.9391C10.0899 22.3133 9.99843 21.6647 10 21.013C9.99816 20.36 10.0897 19.71 10.2717 19.0828C10.4473 18.4665 10.756 17.8962 11.176 17.4122C11.6225 16.9055 12.1767 16.5051 12.798 16.2403C13.5685 15.9218 14.3976 15.7698 15.231 15.7942H22.2786C22.4337 15.7848 22.5891 15.8061 22.7359 15.8569C22.8828 15.9077 23.0181 15.987 23.1342 16.0902C23.238 16.1932 23.319 16.3168 23.3721 16.453C23.4252 16.5891 23.4491 16.7349 23.4424 16.881C23.4491 17.027 23.4252 17.1728 23.3721 17.309C23.319 17.4452 23.238 17.5687 23.1342 17.6717C23.0181 17.7749 22.8828 17.8542 22.7359 17.905C22.5891 17.9558 22.4337 17.9771 22.2786 17.9677H15.304C13.0116 17.9677 11.8654 18.9828 11.8654 21.013C11.8654 23.0432 13.0116 24.057 15.304 24.0543H22.2786C22.4337 24.0449 22.5891 24.0662 22.7359 24.117C22.8828 24.1678 23.0181 24.247 23.1342 24.3503C23.2406 24.4556 23.3232 24.5824 23.3764 24.7223C23.4295 24.8622 23.452 25.0119 23.4424 25.1613C23.4499 25.3074 23.4263 25.4534 23.3732 25.5897C23.3201 25.726 23.2386 25.8495 23.1342 25.952C23.0183 26.0558 22.8831 26.1357 22.7363 26.1872C22.5895 26.2387 22.4339 26.2607 22.2786 26.2521L15.231 26.2318Z" fill="#0D1F2A"/>
<path d="M26.2569 29.9909C26.0963 30.0595 25.9309 30.1164 25.7621 30.1612C25.6301 30.1977 25.4936 30.2154 25.3566 30.2139C25.2159 30.2231 25.0749 30.201 24.9438 30.1491C24.8127 30.0972 24.6946 30.0168 24.5983 29.9138C24.4288 29.7245 24.3362 29.4786 24.3388 29.2245C24.3133 28.943 24.3976 28.6626 24.574 28.4419C24.7467 28.2778 24.9548 28.1557 25.1823 28.085L34.2817 25.0924V25.0438L25.1823 22.0512C24.9538 21.9808 24.7453 21.8571 24.574 21.6903C24.3967 21.4716 24.3122 21.192 24.3388 20.9117C24.3371 20.6565 24.4295 20.4097 24.5983 20.2183C24.6955 20.1167 24.8138 20.0376 24.9448 19.9864C25.0758 19.9353 25.2163 19.9134 25.3566 19.9223C25.4933 19.9214 25.6295 19.9377 25.7621 19.9709C25.9303 20.0192 26.0956 20.0775 26.2569 20.1453L36.8688 23.9286C37.1343 24.0109 37.3791 24.1492 37.5865 24.3341C37.752 24.5442 37.8304 24.8099 37.8055 25.0762C37.8304 25.3425 37.752 25.6082 37.5865 25.8183C37.3791 26.0032 37.1343 26.1415 36.8688 26.2238L26.2569 29.9909Z" fill="#0D1F2A"/>
<path d="M60.9108 15.8204C60.8939 15.5325 60.9916 15.2497 61.1826 15.0337C61.2781 14.9386 61.3922 14.8643 61.5178 14.8155C61.6434 14.7666 61.7778 14.7443 61.9124 14.7499C62.0465 14.7444 62.1802 14.7667 62.3052 14.8156C62.4301 14.8645 62.5435 14.9387 62.6383 15.0337C62.8293 15.2497 62.927 15.5325 62.91 15.8204V25.4389C62.8798 25.9917 62.97 26.5446 63.1745 27.0592C63.3789 27.5738 63.6926 28.0378 64.094 28.4193C64.9509 29.1579 66.0578 29.5409 67.188 29.4898C68.3177 29.538 69.4236 29.1554 70.282 28.4193C70.6828 28.0376 70.996 27.5735 71.1997 27.0588C71.4035 26.5442 71.493 25.9915 71.462 25.4389V15.8204C71.4466 15.532 71.5457 15.2493 71.7377 15.0337C71.8322 14.9383 71.9456 14.8638 72.0706 14.8149C72.1956 14.766 72.3295 14.7439 72.4636 14.7499C72.5977 14.7439 72.7315 14.766 72.8565 14.8149C72.9816 14.8638 73.095 14.9383 73.1894 15.0337C73.3815 15.2493 73.4806 15.532 73.4651 15.8204V24.6684C73.5065 25.8076 73.3047 26.9425 72.8731 27.9976C72.5376 28.7773 72.0187 29.4645 71.3606 30.0007C70.7653 30.4697 70.0725 30.7995 69.3331 30.9658C68.6283 31.1291 67.9074 31.2134 67.1839 31.2172C66.4604 31.2136 65.7396 31.1293 65.0348 30.9658C64.2954 30.7995 63.6026 30.4697 63.0073 30.0007C62.3476 29.4661 61.8283 28.7785 61.4947 27.9976C61.0613 26.943 60.8594 25.8077 60.9027 24.6684L60.9108 15.8204Z" fill="white"/>
<path d="M84.4302 14.7524C84.922 14.7529 85.4124 14.8032 85.8941 14.9024C86.3332 14.9862 86.7607 15.1223 87.1674 15.3079C87.5 15.4543 87.8046 15.6573 88.0676 15.9081C88.1705 16.0006 88.2537 16.1129 88.3122 16.2383C88.3707 16.3637 88.4034 16.4996 88.4082 16.6379C88.412 16.8692 88.3263 17.0929 88.1689 17.2624C88.09 17.3488 87.9934 17.4171 87.8856 17.4626C87.7778 17.5081 87.6614 17.5297 87.5445 17.526C87.3354 17.5318 87.1293 17.4754 86.9524 17.3638L86.3726 17.0029C86.1174 16.8501 85.8452 16.7276 85.5616 16.6379C85.167 16.5211 84.7564 16.4677 84.3451 16.4798C83.6722 16.4546 83.0142 16.6816 82.5001 17.1164C82.2631 17.3213 82.0749 17.5765 81.9493 17.8635C81.8237 18.1504 81.7639 18.4619 81.7742 18.7749C81.7614 19.0354 81.8055 19.2955 81.9035 19.5371C82.0016 19.7787 82.1512 19.9961 82.3419 20.1739C82.7657 20.5411 83.2465 20.8369 83.7652 21.0498C84.3329 21.2931 84.9506 21.5202 85.6183 21.731C86.2657 21.9367 86.8874 22.2156 87.4715 22.5623C88.0375 22.9 88.522 23.3583 88.8908 23.9045C89.3004 24.5605 89.4998 25.3259 89.4625 26.0983C89.4633 26.7602 89.3396 27.4164 89.0976 28.0325C88.8593 28.6398 88.4991 29.1919 88.0392 29.6545C87.5502 30.1432 86.9665 30.5269 86.3239 30.7818C85.5765 31.0683 84.7804 31.206 83.9801 31.1873C83.4427 31.1875 82.9064 31.1372 82.3784 31.0373C81.8805 30.9525 81.3927 30.8166 80.9227 30.6318C80.5406 30.4908 80.1864 30.2836 79.8765 30.0195C79.755 29.9274 79.6555 29.8093 79.5854 29.6739C79.5152 29.5386 79.4762 29.3892 79.471 29.2369C79.4636 28.9825 79.5344 28.732 79.6737 28.5191C79.7436 28.4166 79.8392 28.3341 79.9509 28.2801C80.0626 28.226 80.1865 28.2021 80.3103 28.2109C80.5138 28.2229 80.7101 28.2902 80.8781 28.4056C81.093 28.5353 81.3444 28.6773 81.6404 28.8354C81.9652 29.0089 82.3044 29.1541 82.6541 29.2693C83.0878 29.4077 83.5413 29.4734 83.9963 29.4639C84.4717 29.471 84.9435 29.3813 85.3832 29.2004C85.7778 29.0362 86.1341 28.7918 86.4293 28.4826C86.7174 28.1824 86.9409 27.8263 87.0862 27.4364C87.2416 27.0301 87.3187 26.5981 87.3133 26.1632C87.329 25.8873 87.2865 25.6112 87.1887 25.3527C87.0909 25.0943 86.94 24.8593 86.7456 24.6628C86.3309 24.2774 85.8501 23.9697 85.3264 23.7545C84.7587 23.5112 84.1383 23.2841 83.4733 23.0732C82.829 22.8683 82.2078 22.5965 81.6201 22.2622C81.0604 21.944 80.5752 21.5099 80.1968 20.989C79.7907 20.3647 79.592 19.6282 79.6291 18.8844C79.635 18.3867 79.7426 17.8954 79.9454 17.4408C80.1658 16.9369 80.4826 16.4809 80.8781 16.0986C81.3133 15.6797 81.8219 15.3443 82.3784 15.1092C83.0298 14.8478 83.7289 14.7262 84.4302 14.7524V14.7524Z" fill="white"/>
<path d="M97.4623 29.0792H102.284C102.538 29.0688 102.788 29.1493 102.989 29.3063C103.085 29.3959 103.159 29.5059 103.206 29.6281C103.253 29.7502 103.272 29.8814 103.261 30.0118C103.272 30.1424 103.254 30.2738 103.207 30.3961C103.16 30.5184 103.085 30.6283 102.989 30.7174C102.789 30.876 102.539 30.9567 102.284 30.9445H96.5297C96.3793 30.9577 96.2279 30.9361 96.0872 30.8812C95.9465 30.8263 95.8204 30.7398 95.7187 30.6282C95.5484 30.4066 95.4596 30.1331 95.4673 29.8537V15.8437C95.4605 15.5656 95.5493 15.2937 95.7187 15.0732C95.8194 14.9602 95.9453 14.8723 96.0861 14.8167C96.2269 14.761 96.3789 14.7392 96.5297 14.7529H102.284C102.538 14.7425 102.788 14.823 102.989 14.9799C103.085 15.0692 103.159 15.1792 103.206 15.3014C103.253 15.4236 103.272 15.555 103.261 15.6855C103.272 15.816 103.254 15.9475 103.207 16.0698C103.16 16.1921 103.085 16.302 102.989 16.3911C102.788 16.5481 102.538 16.6285 102.284 16.6182H97.4623V21.9181H101.85C102.105 21.9059 102.355 21.9865 102.555 22.1451C102.651 22.2343 102.726 22.3442 102.773 22.4664C102.82 22.5887 102.839 22.7202 102.827 22.8507C102.838 22.9806 102.82 23.1113 102.772 23.2329C102.725 23.3545 102.651 23.4637 102.555 23.5522C102.356 23.7123 102.105 23.7944 101.85 23.7834H97.4623V29.0792Z" fill="white"/>
<path d="M111.27 30.0118C111.278 30.1547 111.257 30.2977 111.21 30.4327C111.163 30.5677 111.089 30.692 110.994 30.7985C110.899 30.8935 110.786 30.9678 110.661 31.0166C110.536 31.0655 110.402 31.0879 110.268 31.0824C110.133 31.0879 109.999 31.0656 109.873 31.0167C109.748 30.9679 109.634 30.8936 109.538 30.7985C109.443 30.6917 109.371 30.5672 109.324 30.4322C109.277 30.2972 109.258 30.1544 109.266 30.0118V15.8437C109.26 15.5656 109.348 15.2937 109.518 15.0732C109.619 14.9602 109.744 14.8723 109.885 14.8167C110.026 14.761 110.178 14.7392 110.329 14.7529H114.035C114.666 14.7513 115.292 14.8554 115.888 15.061C116.467 15.2524 117.004 15.5524 117.47 15.945C117.923 16.334 118.297 16.8061 118.573 17.3359C118.851 17.8887 118.99 18.5012 118.978 19.1201C118.996 19.8334 118.877 20.5435 118.629 21.2125C118.419 21.748 118.092 22.23 117.672 22.6236C117.268 22.9892 116.792 23.2655 116.273 23.4346C115.721 23.612 115.146 23.7076 114.566 23.7185L113.703 23.7388L118.865 29.4158C118.989 29.5328 119.089 29.6733 119.158 29.8292C119.228 29.9852 119.266 30.1534 119.27 30.3241C119.27 30.4292 119.246 30.5329 119.2 30.6276C119.155 30.7223 119.088 30.8057 119.007 30.8715C118.826 31.0249 118.595 31.1059 118.358 31.0986C118.173 31.1066 117.991 31.0585 117.835 30.9607C117.689 30.8693 117.553 30.7634 117.429 30.6444L111.245 23.8645L111.27 30.0118ZM111.27 22.2343H113.999C115.045 22.2343 115.803 21.9991 116.282 21.5288C116.76 21.0584 116.999 20.3123 116.999 19.258C117.001 18.8902 116.928 18.5259 116.784 18.1874C116.641 17.8565 116.431 17.5584 116.168 17.3116C115.89 17.0533 115.567 16.8485 115.215 16.7074C114.812 16.5511 114.382 16.474 113.95 16.4803H111.27V22.2343Z" fill="white"/>
<path d="M135.618 16.0661C135.724 15.751 135.86 15.4468 136.024 15.1578C136.109 15.0223 136.229 14.9129 136.373 14.8413C136.516 14.7698 136.676 14.739 136.835 14.7523C136.955 14.7462 137.074 14.7654 137.186 14.8087C137.298 14.8521 137.399 14.9185 137.484 15.0037C137.635 15.1541 137.721 15.3581 137.723 15.5714C137.72 15.8354 137.674 16.0971 137.585 16.3459L132.65 30.133C132.558 30.4226 132.421 30.6961 132.245 30.944C132.152 31.0495 132.036 31.1315 131.905 31.183C131.775 31.2345 131.634 31.254 131.494 31.24C131.355 31.2533 131.214 31.2335 131.084 31.182C130.953 31.1306 130.837 31.049 130.744 30.944C130.57 30.6952 130.433 30.4218 130.339 30.133L125.404 16.3459C125.318 16.0965 125.273 15.835 125.27 15.5714C125.271 15.3587 125.355 15.1548 125.505 15.0037C125.59 14.9191 125.691 14.8531 125.803 14.8098C125.915 14.7665 126.034 14.7469 126.154 14.7523C126.313 14.7381 126.474 14.7685 126.617 14.8401C126.76 14.9117 126.881 15.0217 126.965 15.1578C127.131 15.4459 127.267 15.7503 127.37 16.0661L131.466 27.8703H131.511L135.618 16.0661Z" fill="white"/>
<path d="M145.728 30.1466C145.743 30.4342 145.646 30.7166 145.456 30.9333C145.361 31.0283 145.246 31.1026 145.121 31.1515C144.995 31.2003 144.861 31.2227 144.726 31.2171C144.592 31.2226 144.458 31.2002 144.334 31.1514C144.209 31.1025 144.095 31.0282 144 30.9333C143.905 30.8267 143.831 30.7024 143.784 30.5674C143.737 30.4324 143.717 30.2894 143.725 30.1466V15.8202C143.709 15.5319 143.808 15.2492 144 15.0336C144.095 14.9386 144.209 14.8643 144.334 14.8155C144.458 14.7666 144.592 14.7442 144.726 14.7497C144.861 14.7442 144.995 14.7665 145.121 14.8153C145.246 14.8642 145.361 14.9385 145.456 15.0336C145.645 15.2507 145.743 15.5327 145.728 15.8202V30.1466Z" fill="white"/>
<path d="M156.71 14.7532C157.201 14.7538 157.692 14.804 158.173 14.9032C158.613 14.987 159.04 15.1231 159.447 15.3087C159.779 15.4551 160.084 15.6582 160.347 15.9089C160.45 16.0014 160.533 16.1137 160.592 16.2392C160.65 16.3646 160.683 16.5005 160.688 16.6388C160.693 16.8703 160.607 17.0947 160.448 17.2632C160.369 17.3496 160.273 17.4179 160.165 17.4634C160.057 17.5089 159.941 17.5305 159.824 17.5268C159.615 17.5327 159.409 17.4762 159.232 17.3646L158.652 17.0037C158.397 16.8509 158.125 16.7284 157.841 16.6388C157.446 16.5219 157.036 16.4685 156.624 16.4806C155.953 16.4549 155.296 16.682 154.783 17.1173C154.545 17.3213 154.356 17.5763 154.23 17.8634C154.103 18.1505 154.043 18.4623 154.054 18.7758C154.041 19.0362 154.085 19.2963 154.183 19.5379C154.281 19.7796 154.431 19.9969 154.621 20.1747C155.045 20.5419 155.526 20.8377 156.045 21.0506C156.612 21.2939 157.23 21.521 157.898 21.7319C158.545 21.9375 159.167 22.2164 159.751 22.5631C160.317 22.9008 160.801 23.3591 161.17 23.9054C161.58 24.5613 161.779 25.3267 161.742 26.0991C161.743 26.7611 161.619 27.4172 161.377 28.0334C161.139 28.6407 160.778 29.1927 160.319 29.6554C159.83 30.1441 159.246 30.5277 158.603 30.7826C157.856 31.0691 157.06 31.2069 156.259 31.1881C155.715 31.1896 155.172 31.1393 154.637 31.0381C154.14 30.9533 153.652 30.8174 153.182 30.6326C152.8 30.4917 152.445 30.2844 152.136 30.0203C152.014 29.9282 151.915 29.8101 151.844 29.6748C151.774 29.5394 151.735 29.3901 151.73 29.2377C151.723 28.9833 151.793 28.7329 151.933 28.52C152.003 28.4174 152.098 28.335 152.21 28.2809C152.322 28.2268 152.446 28.203 152.569 28.2118C152.773 28.2238 152.969 28.2911 153.137 28.4064C153.352 28.5362 153.603 28.6781 153.899 28.8362C154.224 29.0098 154.563 29.1549 154.913 29.2701C155.347 29.4082 155.8 29.474 156.255 29.4648C156.731 29.4718 157.203 29.3821 157.642 29.2012C158.037 29.037 158.393 28.7926 158.688 28.4835C158.976 28.1832 159.2 27.8272 159.345 27.4373C159.502 27.0312 159.58 26.5992 159.576 26.164C159.591 25.8878 159.548 25.6116 159.45 25.3532C159.351 25.0948 159.2 24.8599 159.005 24.6636C158.59 24.2782 158.109 23.9705 157.585 23.7553C157.018 23.512 156.397 23.2849 155.732 23.0741C155.088 22.8691 154.467 22.5973 153.879 22.2631C153.32 21.9437 152.835 21.5098 152.456 20.9898C152.05 20.3656 151.851 19.629 151.888 18.8853C151.894 18.3875 152.002 17.8963 152.204 17.4417C152.425 16.9377 152.742 16.4818 153.137 16.0995C153.573 15.6795 154.083 15.3441 154.642 15.11C155.298 14.8454 156.003 14.7238 156.71 14.7532V14.7532Z" fill="white"/>
<path d="M169.735 30.1506C169.754 30.4347 169.663 30.7151 169.48 30.9333C169.384 31.0283 169.27 31.1027 169.144 31.1515C169.019 31.2003 168.884 31.2227 168.75 31.2171C168.616 31.2226 168.482 31.2002 168.357 31.1514C168.232 31.1025 168.119 31.0282 168.024 30.9333C167.928 30.8267 167.855 30.7024 167.808 30.5674C167.76 30.4324 167.74 30.2894 167.748 30.1466V15.8203C167.733 15.5319 167.832 15.2492 168.024 15.0336C168.119 14.9386 168.232 14.8643 168.357 14.8155C168.482 14.7666 168.616 14.7442 168.75 14.7497C168.884 14.7442 169.019 14.7665 169.144 14.8153C169.27 14.8642 169.384 14.9385 169.48 15.0336C169.669 15.2507 169.766 15.5327 169.751 15.8203L169.735 30.1506Z" fill="white"/>
<path d="M175.753 22.9859C175.751 21.9485 175.904 20.9166 176.207 19.9244C176.491 18.9695 176.95 18.0757 177.561 17.2886C178.162 16.5211 178.922 15.8918 179.787 15.4436C180.736 14.9669 181.787 14.7289 182.849 14.7502C183.909 14.7292 184.959 14.9673 185.906 15.4436C186.773 15.8918 187.534 16.521 188.137 17.2886C188.745 18.0769 189.202 18.9704 189.487 19.9244C189.79 20.9166 189.943 21.9485 189.941 22.9859C189.943 24.022 189.79 25.0526 189.487 26.0434C189.203 26.9987 188.745 27.8935 188.137 28.6832C187.534 29.4497 186.773 30.0775 185.906 30.5242C184.959 31.0005 183.909 31.2386 182.849 31.2176C181.787 31.2389 180.736 31.0009 179.787 30.5242C178.922 30.0775 178.163 29.4496 177.561 28.6832C176.958 27.8995 176.505 27.0115 176.223 26.0637C175.912 25.0672 175.754 24.0297 175.753 22.9859V22.9859ZM177.89 22.9859C177.889 23.7666 177.978 24.5447 178.153 25.3054C178.314 26.0469 178.602 26.7549 179.005 27.3978C179.393 28.0127 179.918 28.5302 180.538 28.9103C181.239 29.3151 182.04 29.5159 182.849 29.4902C183.654 29.5109 184.448 29.3073 185.144 28.9022C185.764 28.522 186.289 28.0046 186.677 27.3897C187.081 26.747 187.371 26.039 187.533 25.2973C187.705 24.5361 187.792 23.7582 187.792 22.9778C187.792 22.1974 187.705 21.4194 187.533 20.6583C187.372 19.9162 187.082 19.208 186.677 18.566C186.291 17.9493 185.766 17.4314 185.144 17.0534C184.445 16.6471 183.645 16.4462 182.837 16.4736C182.027 16.4458 181.226 16.6468 180.525 17.0534C179.904 17.4314 179.379 17.9493 178.993 18.566C178.589 19.2083 178.3 19.9165 178.141 20.6583C177.969 21.4221 177.884 22.203 177.89 22.9859V22.9859Z" fill="white"/>
<path d="M197.946 30.1628C197.954 30.3056 197.934 30.4486 197.887 30.5836C197.839 30.7186 197.766 30.843 197.67 30.9495C197.576 31.0449 197.462 31.1194 197.337 31.1683C197.212 31.2172 197.079 31.2393 196.944 31.2333C196.81 31.2393 196.677 31.2172 196.551 31.1683C196.426 31.1194 196.313 31.0449 196.219 30.9495C196.123 30.843 196.05 30.7186 196.002 30.5836C195.955 30.4486 195.935 30.3056 195.943 30.1628V15.9419C195.943 15.1552 196.247 14.7578 196.855 14.7578C197.116 14.7458 197.373 14.8262 197.581 14.9849C197.84 15.2266 198.069 15.499 198.262 15.7959L206.449 27.5554H206.498V15.8203C206.481 15.5324 206.579 15.2496 206.77 15.0336C206.864 14.9386 206.978 14.8643 207.103 14.8155C207.228 14.7666 207.362 14.7442 207.496 14.7497C207.63 14.7442 207.765 14.7665 207.89 14.8153C208.016 14.8642 208.13 14.9385 208.226 15.0336C208.417 15.2496 208.514 15.5324 208.497 15.8203V30.0128C208.497 30.8238 208.193 31.1968 207.589 31.1968C207.326 31.2095 207.068 31.1291 206.859 30.9698C206.6 30.728 206.371 30.4557 206.178 30.1588L197.991 18.3992H197.946V30.1628Z" fill="white"/>
</svg>
