<svg width="29" height="30" viewBox="0 0 29 30" fill="none" xmlns="http://www.w3.org/2000/svg">
<path d="M21.7501 15.0725V12.825C21.7501 12.4405 21.5973 12.0717 21.3254 11.7997C21.0534 11.5278 20.6846 11.375 20.3001 11.375H15.2251V9.12752C16.4092 8.88575 17.3951 8.06997 17.8537 6.95186C18.3125 5.83378 18.1838 4.56047 17.5108 3.55683C16.8377 2.55301 15.7086 1.95081 14.5001 1.95081C13.2915 1.95081 12.1624 2.55297 11.4894 3.55683C10.8163 4.56052 10.6876 5.83378 11.1464 6.95186C11.6051 8.06993 12.5909 8.88574 13.775 9.12752V11.375H8.70005C8.31554 11.375 7.94671 11.5278 7.67469 11.7997C7.40282 12.0717 7.25005 12.4405 7.25005 12.825V15.0725C6.06594 15.3143 5.08006 16.1301 4.62145 17.2482C4.16267 18.3663 4.29131 19.6396 4.96436 20.6432C5.63741 21.647 6.76651 22.2492 7.97506 22.2492C9.18362 22.2492 10.3127 21.6471 10.9858 20.6432C11.6588 19.6395 11.7875 18.3663 11.3287 17.2482C10.8701 16.1301 9.88419 15.3143 8.70007 15.0725V12.825H20.3001V15.0725C19.116 15.3143 18.1301 16.1301 17.6715 17.2482C17.2127 18.3663 17.3413 19.6396 18.0144 20.6432C18.6874 21.647 19.8165 22.2492 21.0251 22.2492C22.2336 22.2492 23.3627 21.6471 24.0358 20.6432C24.7088 19.6395 24.8375 18.3663 24.3787 17.2482C23.9201 16.1301 22.9342 15.3143 21.7501 15.0725H21.7501ZM12.3251 5.57502C12.3251 4.99808 12.5542 4.44497 12.962 4.03698C13.37 3.62917 13.9231 3.40002 14.5001 3.40002C15.077 3.40002 15.6301 3.62917 16.0381 4.03698C16.4459 4.44496 16.6751 4.99808 16.6751 5.57502C16.6751 6.15195 16.4459 6.70507 16.0381 7.11305C15.6301 7.52087 15.077 7.75002 14.5001 7.75002C13.9231 7.75002 13.37 7.52087 12.962 7.11305C12.5542 6.70508 12.3251 6.15195 12.3251 5.57502ZM10.1501 18.625C10.1501 19.202 9.92092 19.7551 9.51311 20.1631C9.10513 20.5709 8.55201 20.8 7.97507 20.8C7.39814 20.8 6.84503 20.5709 6.43704 20.1631C6.02922 19.7551 5.80007 19.202 5.80007 18.625C5.80007 18.0481 6.02922 17.495 6.43704 17.087C6.84501 16.6792 7.39814 16.45 7.97507 16.45C8.55201 16.45 9.10512 16.6792 9.51311 17.087C9.92092 17.495 10.1501 18.0481 10.1501 18.625ZM21.0251 20.8C20.4481 20.8 19.895 20.5709 19.487 20.1631C19.0792 19.7551 18.8501 19.202 18.8501 18.625C18.8501 18.0481 19.0792 17.495 19.487 17.087C19.895 16.6792 20.4481 16.45 21.0251 16.45C21.602 16.45 22.1551 16.6792 22.5631 17.087C22.9709 17.495 23.2001 18.0481 23.2001 18.625C23.2001 19.202 22.9709 19.7551 22.5631 20.1631C22.1551 20.5709 21.602 20.8 21.0251 20.8Z" fill="#FDFEFF"/>
</svg>
