<svg width="25" height="25" viewBox="0 0 25 25" fill="none" xmlns="http://www.w3.org/2000/svg">
<path d="M19.6289 8.20312C19.4859 10.189 18.0127 11.7188 16.4063 11.7188C14.7998 11.7188 13.3243 10.1895 13.1836 8.20312C13.0371 6.13721 14.4712 4.6875 16.4063 4.6875C18.3413 4.6875 19.7754 6.1748 19.6289 8.20312Z" stroke="#F4F7FE" stroke-width="2" stroke-linecap="round" stroke-linejoin="round"/>
<path d="M16.4063 14.8438C13.2242 14.8438 10.1641 16.4243 9.39751 19.5024C9.29595 19.9097 9.55132 20.3125 9.96978 20.3125H22.8433C23.2618 20.3125 23.5157 19.9097 23.4156 19.5024C22.649 16.375 19.5889 14.8438 16.4063 14.8438Z" stroke="#F4F7FE" stroke-width="2" stroke-miterlimit="10"/>
<path d="M9.76566 9.0791C9.65141 10.665 8.46098 11.9141 7.17777 11.9141C5.89457 11.9141 4.70219 10.6655 4.58988 9.0791C4.47318 7.4292 5.63187 6.25 7.17777 6.25C8.72367 6.25 9.88236 7.45947 9.76566 9.0791Z" stroke="#F4F7FE" stroke-width="2" stroke-linecap="round" stroke-linejoin="round"/>
<path d="M10.0586 14.9414C9.17724 14.5376 8.20653 14.3823 7.17772 14.3823C4.63866 14.3823 2.19237 15.6445 1.57958 18.103C1.49901 18.4282 1.70311 18.75 2.0371 18.75H7.51952" stroke="#F4F7FE" stroke-width="2" stroke-miterlimit="10" stroke-linecap="round"/>
</svg>
